<svg xmlns="http://www.w3.org/2000/svg" viewBox="0 0 600 400" width="600" height="400" preserveAspectRatio="xMidYMid slice">
  
  <defs><linearGradient id="wsBg" x1="0" y1="0" x2="0" y2="1"><stop offset="0" stop-color="#2A2A30"></stop><stop offset="1" stop-color="#0F0F12"></stop></linearGradient></defs>
  <rect width="600" height="400" fill="url(#wsBg)"></rect>
  
  <circle cx="420" cy="220" r="80" fill="#F06A00" opacity="0.25"></circle>
  <circle cx="420" cy="220" r="30" fill="#FFD39A" opacity="0.7"></circle>
  <g fill="#FFB469" opacity="0.9">
    <circle cx="450" cy="180" r="2"></circle>
    <circle cx="470" cy="200" r="1.5"></circle>
    <circle cx="490" cy="240" r="2"></circle>
    <circle cx="480" cy="260" r="1.5"></circle>
    <circle cx="380" cy="170" r="2"></circle>
    <circle cx="350" cy="250" r="1.5"></circle>
  </g>
  
  <g fill="#0A0A0B">
    <path d="M 180 180 q 30 -60 80 -60 q 50 0 80 60 v 220 h -160 z"></path>
    <ellipse cx="260" cy="120" rx="38" ry="40"></ellipse>
    <path d="M 222 102 q 38 -48 76 0 v 12 h -76 z" fill="#F06A00"></path>
  </g>
  <rect x="195" y="240" width="130" height="6" fill="#F3A25B"></rect>
  <text x="14" y="390" font-family="Inter, Arial, sans-serif" font-size="9" fill="rgba(255,255,255,0.3)" letter-spacing="2">PLACEHOLDER</text>
</svg>