<svg xmlns="http://www.w3.org/2000/svg" viewBox="0 0 800 800" width="800" height="800" preserveAspectRatio="xMidYMid slice">
  
  <defs>
    <linearGradient id="scafBg" x1="0" y1="0" x2="1" y2="1">
      <stop offset="0" stop-color="#1A1A1F"></stop>
      <stop offset="1" stop-color="#0A0A0B"></stop>
    </linearGradient>
  </defs>
  <rect width="800" height="800" fill="url(#scafBg)"></rect>
  
  <g stroke="#C24B00" stroke-width="2" fill="none" opacity="0.85">
    <rect x="120" y="160" width="120" height="480"></rect>
    <rect x="260" y="140" width="120" height="500"></rect>
    <rect x="400" y="180" width="120" height="460"></rect>
    <rect x="540" y="160" width="120" height="480"></rect>
    <g>
      <line x1="120" y1="220" x2="660" y2="220"></line>
      <line x1="120" y1="280" x2="660" y2="280"></line>
      <line x1="120" y1="340" x2="660" y2="340"></line>
      <line x1="120" y1="400" x2="660" y2="400"></line>
      <line x1="120" y1="460" x2="660" y2="460"></line>
      <line x1="120" y1="520" x2="660" y2="520"></line>
      <line x1="120" y1="580" x2="660" y2="580"></line>
    </g>
  </g>
  <g stroke="#F06A00" stroke-width="1.5" fill="none" opacity="0.7">
    <line x1="120" y1="160" x2="660" y2="180"></line>
    <line x1="120" y1="640" x2="660" y2="640"></line>
  </g>
  <g fill="#F06A00" opacity="0.9">
    <rect x="160" y="200" width="60" height="8"></rect>
    <rect x="300" y="240" width="60" height="8"></rect>
    <rect x="440" y="220" width="60" height="8"></rect>
    <rect x="580" y="280" width="60" height="8"></rect>
    <rect x="180" y="440" width="60" height="8"></rect>
    <rect x="320" y="480" width="60" height="8"></rect>
    <rect x="460" y="460" width="60" height="8"></rect>
    <rect x="600" y="500" width="60" height="8"></rect>
  </g>
  
  <g stroke="#18181B" stroke-width="8" opacity="0.7">
    <line x1="0" y1="700" x2="800" y2="680"></line>
    <line x1="0" y1="100" x2="800" y2="120"></line>
  </g>
  <text x="20" y="780" font-family="Inter, Arial, sans-serif" font-size="10" fill="rgba(255,255,255,0.28)" letter-spacing="2">PLACEHOLDER</text>
</svg>