<svg xmlns="http://www.w3.org/2000/svg" viewBox="0 0 400 400" width="400" height="400">
  <rect width="400" height="400" fill="#F7F7F7"></rect>
  <g transform="translate(40 60)">
    
    <rect x="20" y="10" width="80" height="220" fill="#1A1A1A"></rect>
    <g fill="#0A5A9E" opacity="0.9">
      <rect x="28" y="20" width="64" height="8"></rect>
      <rect x="28" y="34" width="64" height="8"></rect>
      <rect x="28" y="48" width="64" height="8"></rect>
      <rect x="28" y="62" width="64" height="24"></rect>
      <rect x="28" y="92" width="64" height="8"></rect>
      <rect x="28" y="106" width="64" height="8"></rect>
      <rect x="28" y="120" width="64" height="24"></rect>
      <rect x="28" y="150" width="64" height="8"></rect>
      <rect x="28" y="164" width="64" height="8"></rect>
      <rect x="28" y="178" width="64" height="24"></rect>
      <rect x="28" y="208" width="64" height="8"></rect>
    </g>
    
    <rect x="110" y="20" width="210" height="36" fill="#D9D9DD" stroke="#9FA2A8"></rect>
    <rect x="110" y="20" width="210" height="4" fill="#B8BBC1"></rect>
    <rect x="110" y="52" width="210" height="4" fill="#B8BBC1"></rect>
    <text x="140" y="42" font-family="Inter, Arial, sans-serif" font-size="11" font-weight="800" fill="#1A1A1A" letter-spacing="0.5">iDC DATA CENTRE</text>
    
    <rect x="140" y="56" width="20" height="20" fill="#FF6A00"></rect>
    <rect x="200" y="56" width="20" height="20" fill="#FF6A00"></rect>
    <rect x="260" y="56" width="20" height="20" fill="#FF6A00"></rect>
  </g>
  <text x="200" y="320" text-anchor="middle" font-family="Inter, Arial, sans-serif" font-size="14" font-weight="600" fill="#555">iDC Data Centre Busduct</text>
  <text x="200" y="340" text-anchor="middle" font-family="Inter, Arial, sans-serif" font-size="11" fill="#9A9A9A">Data Hall · Continuous Service</text>
</svg>